/* XPM */
static char *enemy[] = {
/* columns rows colors chars-per-pixel */
"68 70 14 1 ",
"  c #2E222F",
". c #3E3546",
"X c #6B3E75",
"o c #694F62",
"O c #625565",
"+ c #E83B3B",
"@ c #FB6B1D",
"# c #966C6C",
"$ c #AB947A",
"% c #905EA9",
"& c #9BABB2",
"* c #C7DCD0",
"= c white",
"- c none",
/* pixels */
"--------------------------------------------------------------------",
"--------------------------------------------------------------------",
"--------------------------------------------------------------------",
"--------------------------------------------------------------------",
"--------------------------------------------------------------------",
"--------------------------------....--------------------------------",
"-------------------------------...... ------------------------------",
"-------------------------------..  ..  -----------------------------",
"------------------------------.. && ..  ----------------------------",
"------------------------------. &&&& .   ---------------------------",
"-----------------------------.. &+&& ..   --------------------------",
"-----------------------------.. +X+& .. O --------------------------",
"-----------------------------.. @X@* ..O   -------------------------",
"----------------------------... *@** ..     ------------------------",
"--------------------------- ... **** ..  ....-----------------------",
"--------------------------.  ..  **   ........----------------------",
"--------------------------..  ..     ....O    ----------------------",
"-------------------------- .. ...   ....  O XXX---------------------",
"-------------------------XX ...... ...O   XXXXX---------------------",
"-----------------------%%XXX  O......  O XXXX%%---------------------",
"----------------------%%%%XXX O ...    XXXXX%%%%--------------------",
"---------------------%%%%%X  X O      XXXXXX%%%%--------------------",
"--------------------%%%%%-    X      XXXXXX  %%%#-------------------",
"-------------------%%%%%--    XX   XXX%%XX    %$$#------------------",
"-------------------%%%%---   --X%XXXX%%XXX-   #$$%------------------",
"------------------%%%%---- -----XXXXXXXXX---- -#%%%-----------------",
"------------------%%%%---- -----%XXXXX%%X---- --%%%%----------------",
"------------------%$##----------X%XXX%%XX--------%%%----------------",
"-----------------$$$##----------XXXXXXXXX--------%%$#---------------",
"-----------------$$##X---------XXXXXXXXX---------#$$#---------------",
"-----------------$$XXX-------- XX%%%XXXXX--------#$$X---------------",
"-----------------$XXX#--------.OXX%%%%XXX -------#$XX---------------",
"-----------------X$$##--------.O OXXXXXO .-------XX$#---------------",
"----------------$$$$##--------...O  XO O..-------#$$#---------------",
"----------------X$$##---------...... O....------#$$#X---------------",
"----------------%XX##--------X.. ........X-..---%$$##  -------------",
"---------------%%%XXX-------XX... ...  .XXX ..-%%%%##  -------------",
"--------------XX%%XXX-------XXX..     ..XX&& ..  X%%#---------------",
"--------------X-XXX-X-------XXX...   ..*&*&oo .  XXXX---------------",
"--------------X-X---X------%XXX.... .***&oooo ..XXXX----------------",
"----------------X----------%%XX-. .&***oo===oo .XX------------------",
"--------------------------%%%%--..&&*oo======o .--------------------",
"--------------------------%%%---.&&&o=====%%-  .--------------------",
"-------------------------%%%%----&&&====-%%%--  --------------------",
"-------------------------%%%-----&&&===--%%%%-----------------------",
"-------------------------%%%-----o&&*=----%%%-----------------------",
"------------------------%%%%------*&**----%%%-----------------------",
"------------------------XXX%-----*&&=*----%%%-----------------------",
"------------------------XXXX-----&&&==----XXX-----------------------",
"-------------------------XXX-----&&&&==---XXX-----------------------",
"-------------------------XXXX-----&&&==---XX##----------------------",
"-------------------------XXX#------&&&**--X###----------------------",
"-------------------------X###-------&&&*--X###----------------------",
"-------------------------####--------&&==-####----------------------",
"-------------------------####---------&&=-###X----------------------",
"-------------------------#XXX----------&&=#XXX----------------------",
"-------------------------###X-------------###X----------------------",
"-------------------------#####------------####----------------------",
"------------------------XX####------------X###----------------------",
"----------------------%%X%XX##-----------X%XXXX---------------------",
"---------------------%XX%%%XXX----------X%%X%%XX--------------------",
"--------------------------------------------------------------------",
"--------------------------------------------------------------------",
"--------------------------------------------------------------------",
"--------------------------------------------------------------------",
"--------------------------------------------------------------------",
"--------------------------------------------------------------------",
"--------------------------------------------------------------------",
"--------------------------------------------------------------------",
"--------------------------------------------------------------------"
};
